# xmcd CD database file
#
# Track frame offsets:
#	182
#	13240
#	25602
#	38685
#	54152
#	67052
#	78182
#	93645
#	108802
#	124187
#	141240
#	157737
#
# Disc length: 2322 seconds
#
# Revision: 4
# Processed by: cddbd v1.5.1PL0 Copyright (c) Steve Scherf et al.
# Submitted via: CDex 1.51
#
DISCID=8e09100c
DTITLE=Ray Charles - The Genius of Ray Charles
DYEAR=1959
DGENRE=Soul
TTITLE0=Let the Good Times Roll
TTITLE1=It Had to Be You
TTITLE2=Alexander's Ragtime Band
TTITLE3=Two Years of Torture
TTITLE4=When Your Lover Has Gone
TTITLE5=Deed I Do
TTITLE6=Just for a Thrill
TTITLE7=You Won't Let Me Go
TTITLE8=Tell Me You'll Wait For Me
TTITLE9=Don't Let the Sun Catch You Cryin'
TTITLE10=Am I Blue
TTITLE11=Come Rain or Come Shine
EXTD=1959 Atlantic Recording 1312-2\n\nRay Charles: piano, vocals (all tracks]\nClark Terry, Ernie Royal, Joe Newman, Snookie Young,\n  Marcus Belgrave, John Hunt: trumpet (tracks 1-6]\nMelba Liston, Quentin Jackson, Thomas Mitchell,\n   Al Gray: trombon
EXTD=e (tracks 1-6]\nFrank Wess: flute, alto or tenor sax (tracks 1-6]\nMarshall Royal: alto sax (tracks 1-6]\nPaul Gonsalves, David "Fathead" Newman: tenor sax (tracks 1-6]\nZoot Sims: tenor sax (tracks 1, 3, 6]\nCharlie Fowlkes, Bennie Crawford: barito
EXTD=ne sax (tracks 1-6]\nFreddie Green: gutiar (tracks 1-6]\nEddie Jones, Edgar Willis: bass (tracks 1, 3, 6]\nCharlie Persip, Teagle Fleming: drums (tracks 1-6]\nJose Mangual: bongo drums (track 3]\nBilly Mitchell: tenor sax (tracks 2, 4, 5]\nAllen Han
EXTD=lon: guitar (tracks 7-12]\nWendell Marshall: bass (tracks 7-12]\nTed Sommer: drums (tracks 7-12]\nBob Brookmeyer: trombone (tracks 7-12]\nwoodwinds/strings concertmaster Harry Lookofsky (tracks 7-12]\n\n\nEntry: Mike Lempriere  mikel@speakeasy.org  
EXTD=21-Feb-1997 YEAR: 1959
EXTT0=
EXTT1=
EXTT2=
EXTT3=
EXTT4=
EXTT5=
EXTT6=
EXTT7=
EXTT8=
EXTT9=
EXTT10=
EXTT11=
PLAYORDER=
